<?xml version="1.0" encoding="utf-8"?>
<!-- Generator: Adobe Illustrator 18.0.0, SVG Export Plug-In . SVG Version: 6.00 Build 0)  -->
<!DOCTYPE svg PUBLIC "-//W3C//DTD SVG 1.1//EN" "http://www.w3.org/Graphics/SVG/1.1/DTD/svg11.dtd">
<svg version="1.1" id="Capa_1" xmlns="http://www.w3.org/2000/svg" xmlns:xlink="http://www.w3.org/1999/xlink" x="0px" y="0px"
	 width="1000px" height="1000px" viewBox="0 0 1000 1000" enable-background="new 0 0 1000 1000" xml:space="preserve">
<path d="M642.6,909.8H27v-57.4c11.2,8.9,25.5,14.3,40.9,14.3h532.2L642.6,909.8z M293.4,66.9c-33,0-59.8,26.8-59.8,59.8
	c0,20.5,10.3,38.6,26.1,49.4c6.8-18.8,17.8-36.1,32.4-50.7s31.9-25.6,50.7-32.4C332,77.2,313.9,66.9,293.4,66.9z M276.3,223.6
	c0,63,51.1,114,114,114s114-51.1,114-114c0-63-51.1-114-114-114c-13.4,0-26.2,2.3-38.1,6.5c-32.3,11.5-58,37.1-69.4,69.4
	C278.6,197.5,276.3,210.3,276.3,223.6z M214.4,380.9c-26.7,59.2-84.9,210.5-100.9,248.6h198.6c4.4-10.8,9.3-21.3,14.7-31.2
	c18.7-34.9,77.1-52.2,63.2-100.9c-0.1-0.4-0.3-0.8-0.4-1.3l52.3,49.6c3.9,3.7,8.6,6.7,13.6,8.6l143,54.6c4.8,1.8,9.8,2.7,14.7,2.7
	c16.6,0,32.2-10.1,38.4-26.5c8.1-21.2-2.5-45-23.8-53.1l-126.4-48.3c-5.9-2.3-11.3-5.7-15.9-10c0,0-111.3-105.6-111.4-105.7
	c-4.7-4.5-10.8-7.4-17.2-9.5c-1.5-0.5-3.1-1-4.7-1.4c-1.7-0.5-3.5-1-5.3-1.4c-27.8-7.4-58.7-13.7-87.3-11.2
	c-9.4,0.8-19.7,3.2-27.7,8.7C222.7,359.8,218.9,371,214.4,380.9z M67.9,841.7h542.6l52,52.7c4.9,5,10.8,8.9,17.1,11.5
	c6.2,2.5,12.8,3.9,19.6,3.9h221.6c28.8,0,52-23.6,51.6-52.4c-0.5-28.3-24.1-50.7-52.4-50.7H720.8L585.4,669.3
	c-10.5-10.7-16.7-15.1-35.5-15.1c-32.4,0-482,0.3-482,0.3c-22.6,0-40.9,18.3-40.9,40.9v94.8v10.6C27,823.4,45.3,841.7,67.9,841.7z
	 M898,653.1c0-65.3-53-118.3-118.3-118.3c-65.3,0-118.3,53-118.3,118.3c0,65.3,53,118.3,118.3,118.3C845,771.4,898,718.5,898,653.1z
	"/>
</svg>
